<?xml version="1.0" standalone="no"?>
<!DOCTYPE svg PUBLIC "-//W3C//DTD SVG 20010904//EN"
 "http://www.w3.org/TR/2001/REC-SVG-20010904/DTD/svg10.dtd">
<svg version="1.0" xmlns="http://www.w3.org/2000/svg"
 width="1024.000000pt" height="1024.000000pt" viewBox="0 0 1024.000000 1024.000000"
 preserveAspectRatio="xMidYMid meet">
<metadata>
Created by potrace 1.11, written by Peter Selinger 2001-2013
</metadata>
<g transform="translate(0.000000,1024.000000) scale(0.100000,-0.100000)"
fill="#000000" stroke="none">
<path d="M512 6657 l-512 -512 512 -512 511 -511 -506 -507 c-279 -279 -507
-511 -507 -517 0 -11 1004 -1018 1015 -1018 3 0 233 227 511 505 278 278 508
505 512 505 4 0 236 -229 515 -508 l509 -509 508 509 c279 279 512 508 517
508 4 0 236 -228 515 -507 l508 -508 508 508 c279 279 510 507 515 507 4 0
234 -227 512 -505 278 -278 508 -505 513 -505 4 0 236 229 516 509 l508 508
509 -508 c279 -280 511 -509 515 -509 3 0 235 229 515 509 l509 509 -511 512
-512 512 511 511 512 512 -512 512 -513 513 -512 -512 -512 -511 -511 511
-512 512 -497 -497 c-274 -274 -505 -504 -514 -512 -15 -11 -75 45 -522 493
-278 278 -510 506 -515 506 -5 0 -236 -227 -514 -505 -278 -278 -507 -505
-510 -505 -2 0 -234 230 -514 510 l-510 510 -512 -512 -511 -512 -512 512
-512 512 -513 -513z"/>
</g>
</svg>
